<?xml version="1.0" standalone="no"?>
<!DOCTYPE svg PUBLIC "-//W3C//DTD SVG 20010904//EN"
 "http://www.w3.org/TR/2001/REC-SVG-20010904/DTD/svg10.dtd">
<svg version="1.0" xmlns="http://www.w3.org/2000/svg"
 width="512.000000pt" height="512.000000pt" viewBox="0 0 512.000000 512.000000"
 preserveAspectRatio="xMidYMid meet">
<metadata>
Created by potrace 1.11, written by Peter Selinger 2001-2013
</metadata>
<g transform="translate(0.000000,512.000000) scale(0.100000,-0.100000)"
fill="#000000" stroke="none">
<path d="M1139 4599 c-40 -6 -96 -38 -119 -67 -17 -21 -41 -61 -66 -112 -10
-19 -20 -37 -23 -40 -4 -3 -13 -18 -22 -35 -76 -142 -132 -235 -142 -236 -27
-3 -313 -18 -477 -25 -69 -3 -150 -7 -180 -9 -30 -2 -67 -4 -82 -4 l-27 -1 4
-162 c4 -169 6 -192 32 -293 39 -156 142 -269 252 -277 17 -1 31 -5 32 -8 6
-46 49 -136 81 -170 54 -58 77 -62 370 -63 l269 0 19 -24 c15 -20 99 -117 135
-157 6 -6 35 -40 65 -76 30 -35 60 -70 65 -76 6 -6 30 -35 55 -65 25 -29 76
-89 113 -133 38 -45 87 -108 109 -141 36 -54 39 -65 35 -106 -5 -38 -55 -178
-102 -284 -7 -16 -48 -113 -90 -215 -83 -198 -128 -304 -153 -360 -9 -19 -16
-37 -17 -40 -1 -3 -8 -21 -17 -40 -9 -19 -30 -69 -48 -110 -18 -41 -38 -88
-45 -105 -43 -97 -87 -222 -94 -264 -11 -68 -6 -103 22 -164 19 -42 36 -61 83
-92 57 -38 62 -40 139 -39 155 2 183 32 449 487 28 48 44 74 126 209 41 68 77
128 80 133 3 6 18 30 34 55 15 25 35 55 43 68 14 22 15 21 84 -74 70 -99 76
-113 60 -129 -15 -16 -53 -135 -65 -205 -7 -36 -11 -95 -9 -132 2 -49 -1 -68
-10 -69 -6 0 -20 -2 -29 -4 -9 -2 -35 -6 -57 -9 -96 -13 -210 -91 -250 -170
-49 -94 -23 -182 64 -226 l50 -25 1010 1 c556 0 1046 3 1090 7 93 7 181 29
245 60 58 29 139 109 168 169 28 57 50 161 54 249 l2 66 36 -8 c70 -17 168
-10 247 16 344 116 485 483 292 757 l-27 38 -47 -51 c-104 -111 -266 -214
-423 -268 l-94 -32 -36 38 c-21 22 -62 67 -92 102 -30 35 -68 78 -85 96 -16
17 -58 63 -91 101 -34 38 -72 81 -85 95 -35 38 -171 188 -189 208 -28 33 -145
164 -170 191 -14 15 -48 54 -77 86 -28 33 -67 75 -85 95 -18 20 -60 67 -93
104 -33 37 -75 84 -93 103 -18 20 -55 61 -81 91 -27 31 -60 67 -73 82 -12 14
-57 63 -98 109 -41 46 -86 95 -98 109 -13 14 -49 55 -80 90 -32 35 -73 81 -93
103 l-36 40 -47 -43 c-25 -23 -77 -71 -114 -106 -37 -36 -107 -101 -156 -146
-82 -76 -120 -112 -264 -249 l-54 -51 -248 252 -249 253 67 63 67 64 174 -175
175 -174 30 27 c47 44 153 143 210 198 131 124 315 298 360 338 l48 45 -30 33
c-30 35 -132 154 -212 249 -25 29 -50 58 -55 64 -6 6 -58 67 -115 136 -58 68
-114 135 -125 148 -11 13 -29 34 -40 46 -11 12 -38 44 -60 70 -22 27 -45 54
-50 60 -6 6 -35 40 -65 76 l-55 65 -400 0 c-221 0 -417 -2 -436 -6z"/>
</g>
</svg>
